# xmcd CD database file
#
# Track frame offsets:
#	150
#	16902
#	34133
#	50846
#	69431
#	85581
#	102311
#	120185
#	137904
#	155810
#	172514
#	192349
#
# Disc length: 2870 seconds
#
# Revision: 0
# Processed by: cddbd v1.5.2PL0 Copyright (c) Steve Scherf et al.
# Submitted via: CDex 1.51
#
DISCID=950b340c
DTITLE=Gigi Moto - Drive Me Home
DYEAR=2014
DGENRE=Country
TTITLE0=Fragile
TTITLE1=Better Together
TTITLE2=The Leaving
TTITLE3=Licence To Fool
TTITLE4=Little Rose
TTITLE5=Run
TTITLE6=Good Enough
TTITLE7=I'm A Rock'n Roll Gipsy
TTITLE8=Girl Behind The Broken Glass
TTITLE9=My Dreamer's Ball
TTITLE10=Drive Me Home
TTITLE11=Free Falling (Reloaded)
EXTD=YEAR: 2014
EXTT0=
EXTT1=
EXTT2=
EXTT3=
EXTT4=
EXTT5=
EXTT6=
EXTT7=
EXTT8=
EXTT9=
EXTT10=
EXTT11=
PLAYORDER=
